<?xml version="1.0" encoding="UTF-8"?>
<svg width="40px" height="40px" viewBox="0 0 40 40" version="1.1" xmlns="http://www.w3.org/2000/svg" xmlns:xlink="http://www.w3.org/1999/xlink">
    <!-- Generator: Sketch 61 (89581) - https://sketch.com -->
    <title>Black Logo Square</title>
    <desc>Created with Sketch.</desc>
    <g id="Black-Logo-Square" stroke="none" stroke-width="1" fill="none" fill-rule="evenodd">
        <path d="M20.2226562,12.3846154 C21.0546875,12.3846154 22.0976562,11.8048315 22.71875,11.0317864 C23.28125,10.3312142 23.6914062,9.352829 23.6914062,8.3744437 C23.6914062,8.2415766 23.6796875,8.1087095 23.65625,8 C22.7304687,8.0362365 21.6171875,8.640178 20.9492187,9.4494596 C20.421875,10.06548 19.9414062,11.0317864 19.9414062,12.0222505 C19.9414062,12.1671964 19.9648438,12.3121424 19.9765625,12.3604577 C20.0351562,12.3725366 20.1289062,12.3846154 20.2226562,12.3846154 Z M17.2929688,27 C18.4296875,27 18.9335938,26.214876 20.3515625,26.214876 C21.7929688,26.214876 22.109375,26.9758423 23.375,26.9758423 C24.6171875,26.9758423 25.4492188,25.792117 26.234375,24.6325493 C27.1132812,23.3038779 27.4765625,21.9993643 27.5,21.9389701 C27.4179688,21.9148125 25.0390625,20.9122695 25.0390625,18.0979021 C25.0390625,15.6579784 26.9140625,14.5588048 27.0195312,14.474253 C25.7773438,12.6382708 23.890625,12.5899555 23.375,12.5899555 C21.9804688,12.5899555 20.84375,13.4596313 20.1289062,13.4596313 C19.3554688,13.4596313 18.3359375,12.6382708 17.1289062,12.6382708 C14.8320312,12.6382708 12.5,14.5950413 12.5,18.2911634 C12.5,20.5861411 13.3671875,23.013986 14.4335938,24.5842339 C15.3476562,25.9129053 16.1445312,27 17.2929688,27 Z" id="" fill="#000000" fill-rule="nonzero"></path>
    </g>
</svg>