<?xml version="1.0" encoding="UTF-8"?>
<svg width="256" height="256" viewBox="0 0 256 256" fill="none" xmlns="http://www.w3.org/2000/svg" aria-hidden="true">
    <path
        d="M216.856 45.607C197.5 36.605 177.039 31.3 156.25 30c-1.991 3.688-4.292 8.612-5.882 12.5-17.007-2.023-33.948-2.023-50.859 0-1.59-3.888-3.891-8.812-5.882-12.5-20.813 1.3-41.265 6.605-60.613 15.607C8.319 86.575 2.41 126.63 4.903 166.43c22.857 16.915 45.006 27.2 66.762 33.962 5.302-7.267 10.045-15.02 14.142-23.142-7.79-2.97-15.251-6.65-22.273-11.087 1.863-1.385 3.69-2.82 5.467-4.304 42.641 19.97 88.955 19.97 131.221 0 1.777 1.484 3.604 2.919 5.467 4.304-7.027 4.437-14.494 8.117-22.283 11.089 4.097 8.12 8.84 15.873 14.142 23.14 21.78-6.762 43.94-17.047 66.806-33.973 3.313-52.175-8.92-92.023-27.698-120.748ZM95.91 145.322c-9.613 0-17.467-8.93-17.467-19.95 0-11.02 7.767-19.95 17.467-19.95 9.7 0 17.554 8.93 17.467 19.95 0 11.02-7.767 19.95-17.467 19.95Zm64.18 0c-9.613 0-17.467-8.93-17.467-19.95 0-11.02 7.767-19.95 17.467-19.95 9.7 0 17.554 8.93 17.467 19.95 0 11.02-7.767 19.95-17.467 19.95Z"
        fill="#5865F2" />
</svg>